<?xml version="1.0" standalone="no"?>
<!DOCTYPE svg PUBLIC "-//W3C//DTD SVG 20010904//EN"
 "http://www.w3.org/TR/2001/REC-SVG-20010904/DTD/svg10.dtd">
<svg version="1.0" xmlns="http://www.w3.org/2000/svg"
 width="100.000000pt" height="100.000000pt" viewBox="0 0 100.000000 100.000000"
 preserveAspectRatio="xMidYMid meet">

<g transform="translate(0.000000,100.000000) scale(0.100000,-0.100000)"
fill="#000000" stroke="none">
<path d="M213 832 c-4 -9 -12 -21 -18 -27 -39 -33 -51 -152 -22 -216 8 -19 17
-42 21 -51 6 -21 -35 -96 -50 -91 -6 2 -14 -5 -17 -16 -4 -19 -1 -20 36 -18
42 3 42 3 45 45 2 23 7 42 13 42 5 0 9 -5 9 -11 0 -5 5 -7 10 -4 6 4 8 15 5
26 -4 11 -3 19 2 18 23 -4 33 3 33 23 l0 21 19 -21 c22 -27 32 -19 24 19 -3
18 -1 29 6 29 6 0 11 4 11 8 0 5 -10 8 -21 8 -41 -2 -86 89 -51 101 9 3 25 14
35 25 17 17 17 18 -3 18 -11 0 -19 -5 -18 -11 2 -6 -2 -13 -7 -15 -18 -7 -17
57 0 70 14 10 11 14 -20 29 -34 16 -36 16 -42 -1z"/>
<path d="M690 818 c-20 -19 -29 -33 -22 -36 15 -5 16 -32 0 -32 -6 0 -8 -3 -5
-6 10 -11 67 17 67 33 0 8 4 12 9 8 15 -9 24 34 11 50 -17 21 -23 19 -60 -17z
m24 -12 c-5 -14 -34 -31 -34 -20 0 8 24 33 32 34 4 0 5 -6 2 -14z m1 -36 c-3
-5 -12 -10 -18 -10 -7 0 -6 4 3 10 19 12 23 12 15 0z"/>
<path d="M619 731 c-7 -16 -16 -28 -20 -25 -4 2 -22 -13 -40 -34 -77 -87 -124
-146 -122 -153 4 -11 -31 -3 -55 12 -30 19 -71 -3 -110 -59 -37 -54 -29 -63
29 -33 22 12 46 21 54 21 26 0 16 -18 -16 -29 -31 -11 -31 -11 -15 -36 22 -34
20 -42 -5 -19 -16 14 -21 15 -17 4 2 -8 14 -19 26 -25 12 -5 22 -13 22 -16 0
-11 -29 -4 -42 9 -17 17 -29 15 -22 -3 4 -8 3 -15 0 -15 -9 0 -47 22 -68 39
-12 9 -22 10 -30 5 -7 -6 -26 -11 -43 -12 -57 -6 -95 -23 -95 -43 0 -11 7 -19
16 -19 13 0 15 -8 9 -48 -8 -61 13 -129 61 -199 l37 -54 139 3 c137 2 138 3
135 25 -2 12 -7 26 -12 30 -4 4 -5 2 -1 -4 4 -7 2 -13 -4 -13 -7 0 -10 -7 -6
-15 7 -18 -3 -19 -27 -1 -16 13 -16 14 4 19 17 5 20 11 15 31 -3 14 -3 26 2
26 8 0 15 53 14 103 -1 26 31 54 58 53 29 -1 36 21 54 169 8 61 19 125 24 143
6 18 7 30 1 27 -5 -4 -9 -11 -9 -17 0 -6 -6 -19 -13 -27 -8 -9 -22 -52 -32
-96 -10 -44 -21 -84 -25 -88 -8 -9 -32 51 -25 63 2 4 0 21 -5 39 -6 22 -6 29
2 25 8 -5 9 -1 5 10 -4 9 -3 15 2 12 4 -3 18 8 30 25 12 16 26 27 31 24 16
-10 35 42 21 58 -9 11 -8 17 3 27 9 6 20 9 26 5 9 -6 15 8 11 28 -1 5 3 6 8 3
12 -8 33 18 29 35 -2 8 2 13 9 12 7 -2 10 4 7 12 -8 21 -10 19 -25 -14z m-236
-399 c-11 -14 -25 -28 -33 -30 -8 -3 -5 6 8 23 12 15 22 38 22 50 0 33 15 41
18 9 2 -15 -4 -38 -15 -52z m-149 -78 c3 -8 2 -12 -4 -9 -6 3 -10 10 -10 16 0
14 7 11 14 -7z"/>
<path d="M313 709 c19 -11 23 -30 6 -26 -6 1 -14 -4 -16 -10 -3 -7 2 -13 10
-13 9 0 18 -8 20 -17 3 -10 5 -4 6 14 1 42 -8 63 -28 63 -14 -1 -14 -2 2 -11z"/>
<path d="M991 662 c-1 -6 -12 -35 -25 -62 -13 -27 -20 -52 -16 -55 10 -6 53
103 46 119 -3 7 -5 7 -5 -2z"/>
<path d="M66 632 c-2 -4 -1 -14 5 -22 7 -12 9 -10 9 8 0 23 -5 28 -14 14z"/>
<path d="M811 465 c-1 -5 -7 -30 -12 -55 -12 -52 -18 -204 -7 -187 4 7 8 23 8
36 0 13 3 21 8 17 4 -4 8 -57 9 -118 1 -60 4 -112 7 -116 11 -11 17 6 16 44
-3 65 -3 97 -1 134 3 50 -23 276 -28 245z m-4 -107 c-3 -8 -6 -5 -6 6 -1 11 2
17 5 13 3 -3 4 -12 1 -19z"/>
<path d="M60 431 c0 -11 -8 -25 -17 -30 -16 -9 -16 -10 3 -11 15 0 23 8 26 25
3 14 1 28 -3 31 -5 3 -9 -4 -9 -15z"/>
<path d="M853 375 c-3 -9 -3 -18 -1 -21 3 -3 8 4 11 16 6 23 -1 27 -10 5z"/>
<path d="M907 324 c-12 -12 -8 -45 8 -60 13 -14 15 -12 15 16 0 19 4 29 10 25
6 -4 8 -15 5 -26 -9 -26 1 -38 27 -31 21 5 21 6 3 12 -13 5 -19 16 -20 36 0
21 -5 30 -20 32 -12 2 -24 0 -28 -4z"/>
<path d="M53 210 c0 -41 2 -58 4 -37 2 20 2 54 0 75 -2 20 -4 3 -4 -38z"/>
<path d="M980 210 c0 -5 5 -10 10 -10 6 0 10 5 10 10 0 6 -4 10 -10 10 -5 0
-10 -4 -10 -10z"/>
<path d="M935 180 c4 -6 11 -8 16 -5 14 9 11 15 -7 15 -8 0 -12 -5 -9 -10z"/>
<path d="M900 169 c0 -5 5 -7 10 -4 6 3 10 8 10 11 0 2 -4 4 -10 4 -5 0 -10
-5 -10 -11z"/>
<path d="M928 153 c-10 -2 -18 -9 -18 -15 0 -5 7 -7 16 -4 9 3 22 6 30 6 8 0
14 5 14 10 0 10 -12 11 -42 3z"/>
<path d="M743 138 c-6 -7 -13 -22 -17 -32 -5 -15 -4 -17 8 -7 7 6 16 21 19 31
6 23 3 25 -10 8z"/>
<path d="M43 45 c0 -27 2 -38 4 -22 2 15 2 37 0 50 -2 12 -4 0 -4 -28z"/>
<path d="M542 45 c0 -17 2 -22 5 -12 2 9 2 23 0 30 -3 6 -5 -1 -5 -18z"/>
<path d="M660 21 c0 -12 5 -21 10 -21 6 0 10 6 10 14 0 8 -4 18 -10 21 -5 3
-10 -3 -10 -14z"/>
<path d="M957 26 c-7 -18 1 -26 25 -26 10 0 18 7 18 16 0 8 -4 12 -10 9 -5 -3
-10 -1 -10 4 0 16 -17 13 -23 -3z"/>
<path d="M920 16 c0 -9 5 -16 10 -16 6 0 10 4 10 9 0 6 -4 13 -10 16 -5 3 -10
-1 -10 -9z"/>
<path d="M620 10 c0 -5 5 -10 10 -10 6 0 10 5 10 10 0 6 -4 10 -10 10 -5 0
-10 -4 -10 -10z"/>
</g>
</svg>
