<?xml version="1.0" standalone="no"?>
<!DOCTYPE svg PUBLIC "-//W3C//DTD SVG 20010904//EN"
 "http://www.w3.org/TR/2001/REC-SVG-20010904/DTD/svg10.dtd">
<svg version="1.0" xmlns="http://www.w3.org/2000/svg"
 width="100.000000pt" height="100.000000pt" viewBox="0 0 100.000000 100.000000"
 preserveAspectRatio="xMidYMid meet">

<g transform="translate(0.000000,100.000000) scale(0.100000,-0.100000)"
fill="#000000" stroke="none">
<path d="M223 962 c-6 -4 -13 -21 -15 -37 -3 -29 -4 -30 -65 -33 -81 -4 -93
-19 -93 -119 l0 -73 450 0 450 0 0 73 c0 100 -12 115 -93 119 -62 3 -62 3 -65
35 -2 25 -9 34 -27 39 -40 10 -63 -4 -67 -39 l-3 -32 -72 -3 -73 -3 0 29 c0
35 -16 52 -50 52 -34 0 -50 -17 -50 -52 l0 -29 -72 3 c-73 3 -73 3 -76 33 -4
33 -16 45 -47 45 -11 0 -25 -4 -32 -8z m55 -46 c-2 -13 -10 -21 -23 -21 -23 0
-33 34 -14 45 20 13 40 -1 37 -24z m240 1 c3 -22 -1 -27 -17 -27 -15 0 -21 6
-21 23 0 46 33 49 38 4z m250 -1 c-2 -13 -10 -21 -23 -21 -23 0 -33 34 -14 45
20 13 40 -1 37 -24z"/>
<path d="M180 566 l0 -44 46 -4 c25 -2 47 -1 50 1 2 2 4 24 4 48 l0 43 -50 0
-50 0 0 -44z"/>
<path d="M360 566 l0 -44 46 -4 c25 -2 47 -1 50 1 2 2 4 24 4 48 l0 43 -50 0
-50 0 0 -44z"/>
<path d="M540 566 l0 -44 46 -4 c25 -2 47 -1 50 1 2 2 4 24 4 48 l0 43 -50 0
-50 0 0 -44z"/>
<path d="M783 582 c-17 -22 -24 -25 -34 -14 -7 6 -17 12 -21 12 -15 0 -8 -27
13 -46 21 -19 21 -19 55 20 18 21 31 43 28 47 -8 14 -17 10 -41 -19z"/>
<path d="M182 393 l3 -48 48 -3 47 -3 0 50 0 51 -51 0 -50 0 3 -47z"/>
<path d="M362 393 l3 -48 48 -3 47 -3 0 50 0 51 -51 0 -50 0 3 -47z"/>
<path d="M542 393 l3 -48 48 -3 47 -3 0 50 0 51 -51 0 -50 0 3 -47z"/>
<path d="M722 393 l3 -48 47 -3 c43 -3 48 -1 54 21 3 14 4 36 2 48 -3 21 -9
24 -56 27 l-53 3 3 -48z"/>
<path d="M180 220 l0 -50 50 0 50 0 0 50 0 50 -50 0 -50 0 0 -50z"/>
<path d="M360 220 l0 -50 50 0 50 0 0 50 0 50 -50 0 -50 0 0 -50z"/>
<path d="M540 220 l0 -50 50 0 50 0 0 50 0 50 -50 0 -50 0 0 -50z"/>
</g>
</svg>
